<svg viewBox="0 0 80 58" fill="none" xmlns="http://www.w3.org/2000/svg">
<path fill-rule="evenodd" clip-rule="evenodd" d="M43.7116 0.125033C44.1784 -0.122551 44.7372 -0.12377 45.205 0.121774L79.205 17.9679C79.7247 18.2407 80.0534 18.7761 80.0613 19.363C80.0628 19.4746 80.0527 19.5846 80.0318 19.6916C80.0512 19.7913 80.0615 19.8944 80.0615 19.9999V28.4614C80.0615 29.3451 79.3451 30.0614 78.4615 30.0614C77.5778 30.0614 76.8615 29.3451 76.8615 28.4614V22.114L39.3969 43.0884C38.9408 43.3438 38.3887 43.3602 37.9182 43.1325L11.2922 30.2444V33.0769C11.2922 33.9606 10.5759 34.6769 9.6922 34.6769C8.80855 34.6769 8.0922 33.9606 8.0922 33.0769V27.6923C8.0922 27.1414 8.37558 26.6293 8.84231 26.3367C9.30903 26.0441 9.89346 26.0122 10.3893 26.2522L38.5615 39.8887L75.1051 19.43L44.4654 3.34756L3.13835 25.2701V36.8483L39.5156 54.6687L77.7213 34.7353C78.5048 34.3266 79.4712 34.6303 79.88 35.4138C80.2887 36.1972 79.985 37.1636 79.2015 37.5724L40.2785 57.8801C39.8274 58.1154 39.2913 58.1222 38.8345 57.8984L0.834471 39.283C0.28602 39.0143 -0.0616455 38.4569 -0.0616455 37.8462V24.3077C-0.0616455 23.7155 0.265435 23.1718 0.788571 22.8943L43.7116 0.125033ZM42.903 9.81714C42.4376 9.57048 41.8806 9.56868 41.4136 9.81232L30.7983 15.3508C30.2789 15.6217 29.9492 16.1548 29.9386 16.7405C29.9281 17.3262 30.2384 17.8708 30.7477 18.1603L45.3631 26.468C45.827 26.7317 46.3919 26.7468 46.8693 26.5081L58.2539 20.8158C58.7898 20.5478 59.1311 20.0028 59.1382 19.4037C59.1454 18.8045 58.8171 18.2516 58.2876 17.971L42.903 9.81714ZM46.202 23.264L34.882 16.8295L42.1479 13.0386L54.0435 19.3433L46.202 23.264Z" fill="#E4042C"/>
</svg>