<svg viewBox="0 0 50 50" fill="none" xmlns="http://www.w3.org/2000/svg">
<path fill-rule="evenodd" clip-rule="evenodd" d="M28.0268 49.8186C40.4065 48.3246 50 37.7826 50 25C50 11.1929 38.8071 0 25 0C11.1929 0 0 11.1929 0 25C0 37.4229 9.06114 47.7295 20.9349 49.6712V31.756H15V24.592H20.8927V20.888C20.9119 10 29.1533 10 29.9234 10C31.8621 10 34.7088 10.14 35 10.284V16.624C34.6797 16.624 34.3231 16.6053 33.9452 16.5854C31.4482 16.4543 28.023 16.2745 28.023 21.128V24.592H34.6858L33.8506 31.708H28.0268V49.8186Z" fill="#3C3C3C"/>
</svg>
