<svg viewBox="0 0 50 50" fill="none" xmlns="http://www.w3.org/2000/svg">
<path d="M36.0637 0H13.9345C10.2401 0.00397053 6.69808 1.47339 4.08571 4.08585C1.47334 6.69831 0.00397039 10.2404 0 13.935L0 36.065C0.00397039 39.7596 1.47334 43.3017 4.08571 45.9141C6.69808 48.5266 10.2401 49.996 13.9345 50H36.0637C39.7582 49.996 43.3002 48.5266 45.9126 45.9141C48.5249 43.3017 49.9943 39.7596 49.9983 36.065V13.935C49.9943 10.2404 48.5249 6.69831 45.9126 4.08585C43.3002 1.47339 39.7582 0.00397053 36.0637 0ZM36.7287 44H14.5645C10.0647 44 5.99979 39.9 5.99979 35.435V13.3C5.99979 8.635 10.2996 6.035 14.5645 6.035H36.6987C41.2336 6.035 43.9635 8.8 43.9635 13.3V35.435C43.9985 39.7 41.3636 44 36.7337 44H36.7287ZM25.6341 12.335C23.2608 12.335 20.9408 13.0388 18.9675 14.3574C16.9942 15.6759 15.4562 17.5501 14.5479 19.7428C13.6397 21.9355 13.4021 24.3483 13.8651 26.6761C14.3281 29.0039 15.471 31.1421 17.1491 32.8203C18.8273 34.4985 20.9654 35.6414 23.2931 36.1044C25.6208 36.5674 28.0335 36.3298 30.2262 35.4216C32.4188 34.5133 34.2929 32.9752 35.6114 31.0018C36.9299 29.0285 37.6337 26.7084 37.6337 24.335C37.6337 22.7591 37.3233 21.1987 36.7203 19.7428C36.1172 18.2869 35.2334 16.964 34.1191 15.8497C33.0048 14.7354 31.682 13.8515 30.2262 13.2484C28.7703 12.6454 27.2099 12.335 25.6341 12.335ZM25.6341 31.035C24.3162 31.035 23.0278 30.6442 21.9319 29.9121C20.836 29.18 19.9817 28.1393 19.4771 26.9217C18.9726 25.7042 18.8403 24.3643 19.097 23.0716C19.3538 21.7788 19.9881 20.5912 20.9196 19.6589C21.8512 18.7266 23.0383 18.0914 24.3308 17.8337C25.6233 17.5759 26.9632 17.7072 28.1811 18.2109C29.3991 18.7146 30.4403 19.5681 31.1732 20.6635C31.9062 21.7589 32.2979 23.047 32.2989 24.365C32.2995 25.2407 32.1276 26.1079 31.793 26.9171C31.4583 27.7263 30.9675 28.4617 30.3486 29.0811C29.7296 29.7005 28.9947 30.1919 28.1858 30.5272C27.3768 30.8624 26.5098 31.035 25.6341 31.035Z" fill="#3C3C3C"/>
<path d="M37.9979 14.9349C39.6188 14.9349 40.9328 13.6209 40.9328 11.9999C40.9328 10.379 39.6188 9.06494 37.9979 9.06494C36.377 9.06494 35.063 10.379 35.063 11.9999C35.063 13.6209 36.377 14.9349 37.9979 14.9349Z" fill="#3C3C3C"/>
</svg>
