<svg viewBox="0 0 53 50" fill="none" xmlns="http://www.w3.org/2000/svg">
<path d="M51.8026 26.1813C51.1403 22.8434 49.7843 20.168 47.6305 18.3217C45.4766 16.4755 42.5874 15.3333 38.4152 15.4689C36.5514 15.5782 34.7414 16.1348 33.1383 17.0917C31.5352 18.0485 30.1861 19.3774 29.2051 20.9659V16.2721H18.0811V49.9948H29.2051V33.6915C29.2051 31.9182 29.1008 30.1085 29.518 28.5439C29.9594 27.3749 30.7026 26.3438 31.6719 25.5554C32.7748 24.6552 34.1786 24.2077 35.599 24.3038C38.9002 24.4446 40.2927 26.4942 40.8142 29.4148C41.0255 31.0521 41.0953 32.7046 41.0228 34.3538V50H52.152V31.8817C52.2154 29.9748 52.0984 28.0662 51.8026 26.1813ZM0.693595 16.3764V49.9948H11.8228V16.2721H0.693595C0.662303 16.2721 0.693595 16.3034 0.693595 16.3764Z" fill="#3C3C3C"/>
<path d="M6.29476 11.6095C9.77125 11.6095 12.5895 9.01059 12.5895 5.80473C12.5895 2.59887 9.77125 0 6.29476 0C2.81826 0 0 2.59887 0 5.80473C0 9.01059 2.81826 11.6095 6.29476 11.6095Z" fill="#3C3C3C"/>
</svg>
