<svg viewBox="0 0 81 75" fill="none" xmlns="http://www.w3.org/2000/svg">
<path fill-rule="evenodd" clip-rule="evenodd" d="M14.3532 69.12C14.5131 69.28 14.673 69.28 14.8329 69.28C15.1526 69.28 15.6323 69.12 15.952 68.8L29.7013 52.48H62.6356C63.435 52.48 64.0745 51.84 64.0745 51.04V1.44C64.0745 0.64 63.435 0 62.6356 0H2.36259C1.56321 0 0.923706 0.64 0.923706 1.44V51.04C0.923706 51.84 1.56321 52.48 2.36259 52.48H13.394V67.84C13.394 68.32 13.7137 68.96 14.3532 69.12ZM14.8329 49.6H3.80146V2.88H61.3566V49.6H29.0618C28.5822 49.6 28.2624 49.76 27.9427 50.08L16.2718 63.84V51.04C16.2718 50.24 15.6323 49.6 14.8329 49.6ZM66.1529 74.2401C66.3128 74.5601 66.7924 74.7201 67.1122 74.7201H67.5918C68.2313 74.5601 68.5511 74.0801 68.5511 73.4401V61.6001H79.4226C80.222 61.6001 80.8615 60.9601 80.8615 60.1601V12.0001C80.8615 11.2001 80.222 10.5601 79.4226 10.5601H69.3504C68.5511 10.5601 67.9116 11.2001 67.9116 12.0001C67.9116 12.8001 68.5511 13.4401 69.3504 13.4401H77.9837V58.5601H67.1122C66.3128 58.5601 65.6733 59.2001 65.6733 60.0001V69.7601L54.9617 59.0401C54.8018 58.7201 54.3222 58.5601 54.0024 58.5601H31.3001C30.5007 58.5601 29.8612 59.2001 29.8612 60.0001C29.8612 60.8001 30.5007 61.4401 31.3001 61.4401H53.3629L66.1529 74.2401Z" fill="#E4042C"/>
</svg>