<svg viewBox="0 0 72 80" fill="none" xmlns="http://www.w3.org/2000/svg">
<path fill-rule="evenodd" clip-rule="evenodd" d="M0 9.55116C0 8.70149 0.616575 8.0127 1.37716 8.0127H8.53838C9.29896 8.0127 9.91554 8.70149 9.91554 9.55116C9.91554 10.4008 9.29896 11.0896 8.53838 11.0896H2.75432V76.923H68.8579V11.0896H63.0738C62.3132 11.0896 61.6967 10.4008 61.6967 9.55116C61.6967 8.70149 62.3132 8.0127 63.0738 8.0127H70.235C70.9956 8.0127 71.6122 8.70149 71.6122 9.55116V78.4615C71.6122 79.3111 70.9956 79.9999 70.235 79.9999H1.37716C0.616575 79.9999 0 79.3111 0 78.4615V9.55116Z" fill="#E4042C"/>
<path fill-rule="evenodd" clip-rule="evenodd" d="M38.1472 9.55113C38.1472 8.70148 38.7638 8.0127 39.5244 8.0127H55.6372C56.3977 8.0127 57.0143 8.70148 57.0143 9.55113C57.0143 10.4008 56.3977 11.0896 55.6372 11.0896H39.5244C38.7638 11.0896 38.1472 10.4008 38.1472 9.55113Z" fill="#E4042C"/>
<path fill-rule="evenodd" clip-rule="evenodd" d="M14.5981 9.55113C14.5981 8.70148 15.2147 8.0127 15.9753 8.0127H32.088C32.8486 8.0127 33.4652 8.70148 33.4652 9.55113C33.4652 10.4008 32.8486 11.0896 32.088 11.0896H15.9753C15.2147 11.0896 14.5981 10.4008 14.5981 9.55113Z" fill="#E4042C"/>
<path fill-rule="evenodd" clip-rule="evenodd" d="M7.16113 1.53847C7.16113 0.688796 7.77771 0 8.53829 0H15.9749C16.7355 0 17.3521 0.688796 17.3521 1.53847V17.2081C17.3521 18.0577 16.7355 18.7465 15.9749 18.7465H8.53829C7.77771 18.7465 7.16113 18.0577 7.16113 17.2081V1.53847ZM9.91544 3.07694V15.6696H14.5978V3.07694H9.91544Z" fill="#E4042C"/>
<path fill-rule="evenodd" clip-rule="evenodd" d="M30.7107 1.53847C30.7107 0.688796 31.3273 0 32.0878 0H39.5245C40.2851 0 40.9016 0.688796 40.9016 1.53847V17.2081C40.9016 18.0577 40.2851 18.7465 39.5245 18.7465H32.0878C31.3273 18.7465 30.7107 18.0577 30.7107 17.2081V1.53847ZM33.465 3.07694V15.6696H38.1473V3.07694H33.465Z" fill="#E4042C"/>
<path fill-rule="evenodd" clip-rule="evenodd" d="M54.2598 1.53847C54.2598 0.688796 54.8763 0 55.6369 0H63.0736C63.8342 0 64.4508 0.688796 64.4508 1.53847V17.2081C64.4508 18.0577 63.8342 18.7465 63.0736 18.7465H55.6369C54.8763 18.7465 54.2598 18.0577 54.2598 17.2081V1.53847ZM57.0141 3.07694V15.6696H61.6964V3.07694H57.0141Z" fill="#E4042C"/>
<path fill-rule="evenodd" clip-rule="evenodd" d="M51.2109 28.1463C51.7471 28.7489 51.7445 29.723 51.205 30.322L22.296 62.4226C21.7566 63.0216 20.8846 63.0187 20.3484 62.4161C19.8122 61.8134 19.8149 60.8393 20.3543 60.2404L49.2633 28.1397C49.8028 27.5407 50.6747 27.5437 51.2109 28.1463Z" fill="#E4042C"/>
<path fill-rule="evenodd" clip-rule="evenodd" d="M20.3484 28.1463C20.8846 27.5437 21.7566 27.5407 22.296 28.1397L51.205 60.2404C51.7445 60.8393 51.7471 61.8134 51.2109 62.4161C50.6747 63.0187 49.8028 63.0216 49.2633 62.4226L20.3543 30.322C19.8149 29.723 19.8122 28.7489 20.3484 28.1463Z" fill="#E4042C"/>
</svg>
