<svg viewBox="0 0 53 50" fill="none" xmlns="http://www.w3.org/2000/svg">
<path d="M40.5311 14.292C40.5311 15.2536 40.484 16.2151 40.437 17.1818C40.4004 17.8664 40.3638 18.5562 40.322 19.2408C40.2384 20.6099 40.7192 20.9287 42.0778 20.6203C43.1421 20.3926 44.2295 20.2909 45.3176 20.3173C45.7202 20.2771 46.1235 20.3852 46.452 20.6213C46.7806 20.8573 47.0117 21.2051 47.1021 21.5995C47.1925 21.9938 47.136 22.4075 46.9431 22.7632C46.7502 23.1188 46.4342 23.3918 46.0544 23.531C44.8003 24.1738 43.5044 24.7277 42.2346 25.3443C40.5729 26.1491 40.2646 26.8232 41.0275 28.4798C41.5738 29.684 42.239 30.8306 43.0132 31.9026C43.949 33.196 45.085 34.3321 46.3784 35.2679C46.9249 35.661 47.5015 36.0104 48.1028 36.313C48.871 36.6997 49.6704 37.0081 50.4752 37.3164C50.841 37.4575 51.2172 37.5933 51.5725 37.7606C51.724 37.8085 51.8635 37.8884 51.9816 37.9947C52.0997 38.1011 52.1936 38.2315 52.2571 38.3772C52.2968 38.6812 52.2162 38.9888 52.0324 39.2342C51.7367 39.6955 51.3113 40.0591 50.8096 40.2793C50.2531 40.534 49.6805 40.7522 49.0956 40.9325C48.4895 41.1363 47.8781 41.3192 47.2563 41.4551C45.9499 41.7843 45.1661 42.4532 44.8839 43.791C44.6017 45.1288 44.1419 45.3587 42.7937 45.1235C39.2822 44.4494 36.0737 45.0033 33.184 47.2138C32.2379 47.8818 31.2341 48.4641 30.1846 48.954C26.5999 50.8247 23.2869 49.9886 20.0994 48.0029C18.9811 47.3061 17.8559 46.6094 16.7237 45.9126C15.3084 45.1359 13.699 44.7839 12.0887 44.8988C11.239 44.9296 10.3924 45.0169 9.55433 45.1601C9.03178 45.2594 8.36814 45.3953 7.89785 45.0033C7.63222 44.7446 7.46109 44.4042 7.41188 44.0366C7.29668 43.4177 7.01277 42.8426 6.59147 42.3748C6.37625 42.1479 6.12566 41.9573 5.84945 41.8105C5.4923 41.6452 5.11698 41.5224 4.7312 41.4447C3.60772 41.1363 2.3745 40.9587 1.3712 40.3473C1.00535 40.1213 0.677358 39.8391 0.399263 39.5112C0.262997 39.3652 0.157589 39.1932 0.0893491 39.0056C0.0211096 38.8179 -0.00855718 38.6184 0.00212527 38.419C0.0805077 37.9487 0.785949 37.5986 1.18831 37.4679C3.80106 36.6109 6.24659 35.4613 7.98146 33.2874C9.2067 31.7056 10.2974 30.024 11.2422 28.2603C11.9581 26.9434 11.4669 26.0132 10.0717 25.3966C8.86456 24.874 7.63135 24.3985 6.45561 23.8289C5.27988 23.2593 4.95589 22.4807 5.22762 21.5505C5.3931 21.0712 5.7191 20.6637 6.15045 20.3971C6.58181 20.1304 7.09202 20.021 7.59477 20.0873C8.3661 20.2049 9.12763 20.3795 9.87308 20.6099C11.4407 21.0018 11.9633 20.6412 11.9319 19.0422C11.9319 18.1016 11.8326 17.1662 11.8117 16.2255C11.7386 13.0483 11.6968 9.83455 13.2749 6.9552C14.9993 3.81979 17.7479 1.88107 21.1654 0.825481C26.093 -0.663837 30.796 -0.214429 35.0443 2.80079C36.136 3.56337 37.1111 4.48047 37.9392 5.52336C38.7414 6.54636 39.3634 7.69856 39.7786 8.9305C40.1966 10.3318 40.4354 11.7804 40.4893 13.2417C40.5154 13.5918 40.5258 13.9419 40.5311 14.292Z" fill="#3C3C3C"/>
</svg>
