<svg viewBox="0 0 50 41" fill="none" xmlns="http://www.w3.org/2000/svg">
<path d="M42.17 3.29905C44.4136 2.75301 46.5828 1.93703 48.63 0.868961C47.8467 3.08077 46.4055 5.00002 44.5 6.36915C46.63 6.16914 48.23 5.46912 50 4.9041C48.6082 6.96887 46.8731 8.78009 44.87 10.2593V13.2894C44.105 21.4497 40.975 27.2449 36.575 31.79C32.175 36.3352 26.315 40.3403 18.42 40.3403C13.055 40.3403 4.195 38.4403 0 35.8402C1.235 35.8402 2.8 35.9052 4.13 35.8402C8.595 35.3401 12.13 33.9101 14.855 31.71C9.96 31.11 6.995 28.6099 5.595 24.5148C6.83 24.6798 8.66 24.7798 9.725 24.3798C5.295 22.8797 2.265 19.9146 1.93 14.2844C3.32919 14.8951 4.80964 15.2993 6.325 15.4845C6.325 15.4845 2.065 11.8593 2.065 7.7942C1.93 5.29411 2.665 3.59906 3.395 1.964C3.83 2.39901 13.895 12.5594 24.48 12.5594C24.415 11.8943 24.315 11.2593 24.245 10.5943C24.31 6.26415 26.445 3.03404 29.475 1.33398C30.9277 0.41522 32.622 -0.0479824 34.34 0.00393167C37.2805 0.0356984 40.0915 1.21865 42.17 3.29905Z" fill="#3C3C3C"/>
</svg>
