<svg viewBox="0 0 50 42" fill="none" xmlns="http://www.w3.org/2000/svg">
<path d="M23.715 16.6356C29.66 11.7254 35.875 13.0605 36.24 12.8954C34.2 5.21018 26.5 -9.53707e-08 18.105 -9.53707e-08C9.185 0.0350011 0 4.84517 0 15.6655C0 24.6659 5.445 26.8209 7.115 28.166C6.46154 29.7719 5.89243 31.4108 5.41 33.0761C7.615 32.2411 9.32 30.8711 11.52 30.036C13.86 30.5711 16.165 31.1361 19.135 31.0361C16.1 23.5158 21.175 18.7407 23.715 16.6356ZM24.615 7.41526C25.1298 7.41723 25.6325 7.5717 26.0595 7.85915C26.4866 8.1466 26.8189 8.55414 27.0146 9.03033C27.2102 9.50652 27.2604 10.03 27.1587 10.5347C27.0571 11.0394 26.8082 11.5026 26.4435 11.8659C26.0788 12.2293 25.6146 12.4764 25.1095 12.5761C24.6045 12.6758 24.0812 12.6236 23.6058 12.4262C23.1304 12.2287 22.7241 11.8948 22.4383 11.4666C22.1525 11.0384 22 10.5352 22 10.0203C22.0007 9.67758 22.0688 9.33831 22.2006 9.02189C22.3324 8.70547 22.5252 8.4181 22.768 8.1762C23.0108 7.93429 23.2989 7.74259 23.6158 7.61202C23.9327 7.48146 24.2722 7.4146 24.615 7.41526ZM11.925 12.6604C11.4098 12.6604 10.9061 12.5077 10.4777 12.2214C10.0493 11.9352 9.71546 11.5283 9.51829 11.0523C9.32113 10.5763 9.26954 10.0525 9.37005 9.54712C9.47057 9.04178 9.71867 8.5776 10.083 8.21327C10.4473 7.84894 10.9115 7.60083 11.4168 7.50032C11.9221 7.3998 12.4459 7.45139 12.9219 7.64856C13.3979 7.84573 13.8047 8.17963 14.091 8.60804C14.3772 9.03644 14.53 9.54011 14.53 10.0553C14.5287 10.7459 14.2538 11.4077 13.7656 11.896C13.2773 12.3842 12.6155 12.6591 11.925 12.6604ZM50 27.661C50 21.2157 44.155 13.9005 34.17 13.9005C27.89 13.8955 19.34 19.2757 19.34 26.9859C19.34 33.9862 26.285 39.9114 34.67 39.9114C35.14 39.9114 39.17 39.3764 40.515 38.8413C42.085 39.8114 43.79 40.6764 45.425 41.5464C45.064 40.0484 44.6063 38.5752 44.055 37.1363C47.13 35.0712 50 32.1011 50 27.656V27.661ZM29.96 24.7159C29.5644 24.7159 29.1778 24.5986 28.8489 24.3788C28.52 24.159 28.2636 23.8466 28.1122 23.4812C27.9609 23.1157 27.9213 22.7136 27.9984 22.3256C28.0756 21.9376 28.2661 21.5812 28.5458 21.3015C28.8255 21.0218 29.1819 20.8313 29.5698 20.7541C29.9578 20.677 30.3599 20.7166 30.7254 20.868C31.0908 21.0193 31.4032 21.2757 31.6229 21.6046C31.8427 21.9335 31.96 22.3202 31.96 22.7158C31.96 23.2462 31.7493 23.755 31.3742 24.1301C30.9991 24.5051 30.4904 24.7159 29.96 24.7159ZM39.96 24.7159C39.5644 24.7159 39.1778 24.5986 38.8489 24.3788C38.52 24.159 38.2636 23.8466 38.1122 23.4812C37.9609 23.1157 37.9213 22.7136 37.9984 22.3256C38.0756 21.9376 38.2661 21.5812 38.5458 21.3015C38.8255 21.0218 39.1819 20.8313 39.5698 20.7541C39.9578 20.677 40.3599 20.7166 40.7254 20.868C41.0908 21.0193 41.4032 21.2757 41.6229 21.6046C41.8427 21.9335 41.96 22.3202 41.96 22.7158C41.9601 23.2394 41.7549 23.7421 41.3884 24.1161C41.022 24.4901 40.5235 24.7054 40 24.7159H39.96Z" fill="#3C3C3C"/>
</svg>
