<svg viewBox="0 0 50 41" fill="none" xmlns="http://www.w3.org/2000/svg">
<path d="M37.565 19.4918C36.865 19.2918 36.365 19.1268 36.73 18.2268C37.53 16.2267 37.595 14.4917 36.73 13.2266C35.095 10.8915 30.665 11.0265 25.565 13.1616C25.565 13.1616 23.965 13.8616 24.365 12.5966C25.135 10.0615 25.035 7.96144 23.8 6.7614C21.035 3.9963 13.7 6.8614 7.4 13.1616C2.735 17.8918 0 22.892 0 27.2271C0 35.4924 10.6 40.5276 21 40.5276C34.6 40.5276 43.665 32.6273 43.665 26.3621C43.635 22.5619 40.435 20.3919 37.565 19.4918ZM21.035 37.5625C12.765 38.3925 5.6 34.6274 5.065 29.1922C4.53 23.757 10.8 18.6918 19.1 17.8618C27.4 17.0317 34.535 20.7969 35.065 26.2271C35.595 31.6573 29.3 36.7274 21.035 37.5625ZM46.535 4.36132C44.9842 2.63706 43.0055 1.35305 40.7991 0.639213C38.5926 -0.0746264 36.2368 -0.192963 33.97 0.296178C33.4774 0.406516 33.0477 0.705426 32.7729 1.12884C32.4981 1.55225 32.4002 2.06646 32.5 2.56126C32.5522 2.80633 32.6523 3.0387 32.7945 3.24504C32.9366 3.45138 33.1181 3.62764 33.3285 3.76373C33.5389 3.89983 33.7741 3.99307 34.0206 4.03813C34.2671 4.08318 34.52 4.07917 34.765 4.02631C36.3811 3.67936 38.0602 3.76405 39.6332 4.27184C41.2063 4.77963 42.6179 5.69264 43.7262 6.91906C44.8345 8.14548 45.6004 9.64208 45.9469 11.2584C46.2933 12.8747 46.2082 14.5538 45.7 16.1267C45.6152 16.3606 45.5782 16.6091 45.5911 16.8575C45.6041 17.1059 45.6667 17.3492 45.7753 17.5729C45.8839 17.7967 46.0364 17.9964 46.2235 18.1603C46.4107 18.3241 46.6288 18.4487 46.865 18.5268C47.865 18.8618 49.2 18.2918 49.2 17.2918C50.9 12.9616 49.835 7.99144 46.535 4.36132ZM40.835 16.2917C41.25 16.4238 41.7005 16.3858 42.0877 16.1861C42.4748 15.9865 42.7669 15.6414 42.9 15.2267C43.252 14.1524 43.314 13.0041 43.0795 11.8981C42.845 10.7922 42.3224 9.76784 41.5646 8.92886C40.8069 8.08987 39.8409 7.46604 38.7645 7.12054C37.688 6.77504 36.5394 6.72014 35.435 6.96141C35.2209 7.00572 35.0178 7.09201 34.8373 7.21527C34.6568 7.33853 34.5025 7.49633 34.3833 7.67956C34.2641 7.86279 34.1823 8.06781 34.1428 8.2828C34.1033 8.49778 34.1067 8.71847 34.153 8.93212C34.1992 9.14576 34.2873 9.34813 34.4121 9.52755C34.537 9.70696 34.6962 9.85986 34.8805 9.97742C35.0647 10.095 35.2705 10.1749 35.4858 10.2125C35.7011 10.2501 35.9218 10.2447 36.135 10.1965C36.6757 10.0766 37.2385 10.1028 37.7658 10.2724C38.293 10.442 38.7656 10.7489 39.135 11.1615C39.5034 11.5773 39.7582 12.0811 39.8747 12.6242C39.9912 13.1674 39.9655 13.7314 39.8 14.2617C39.7302 14.4627 39.7018 14.6758 39.7165 14.8881C39.7311 15.1004 39.7885 15.3075 39.8851 15.4971C39.9818 15.6867 40.1157 15.8548 40.279 15.9914C40.4422 16.1279 40.6313 16.2301 40.835 16.2917ZM21.835 22.0569C17.9 21.0219 13.435 22.992 11.735 26.4571C10.035 29.9222 11.67 33.9223 15.67 35.2224C19.805 36.5574 24.67 34.5223 26.335 30.6872C28 26.9621 25.935 23.092 21.835 22.0619V22.0569ZM18.835 31.0922C18.4448 31.7087 17.8515 32.1695 17.1577 32.395C16.4639 32.6205 15.713 32.5966 15.035 32.3273C14.7382 32.1911 14.4756 31.9902 14.2667 31.7393C14.0577 31.4883 13.9077 31.1937 13.8276 30.8771C13.7475 30.5605 13.7393 30.23 13.8038 29.9099C13.8682 29.5897 14.0036 29.2881 14.2 29.0272C14.59 28.4275 15.1706 27.9766 15.8482 27.7471C16.5257 27.5176 17.2608 27.5229 17.935 27.7621C18.2366 27.8968 18.5044 28.0968 18.7191 28.3479C18.9337 28.5989 19.0898 28.8946 19.1759 29.2134C19.2621 29.5322 19.2762 29.8663 19.2173 30.1912C19.1583 30.5162 19.0277 30.824 18.835 31.0922ZM21.47 27.7271C21.3292 27.9681 21.1094 28.153 20.8479 28.2505C20.5864 28.3481 20.2992 28.3521 20.035 28.2621C19.9212 28.2146 19.8194 28.1423 19.737 28.0505C19.6546 27.9587 19.5937 27.8497 19.5588 27.7314C19.5238 27.6131 19.5157 27.4885 19.5349 27.3667C19.5541 27.2449 19.6003 27.1289 19.67 27.0271C19.8086 26.7929 20.0225 26.6126 20.2767 26.5154C20.5309 26.4183 20.8105 26.4101 21.07 26.4921C21.1896 26.5324 21.298 26.6002 21.3866 26.6901C21.4751 26.7801 21.5413 26.8895 21.5797 27.0097C21.6182 27.1299 21.6278 27.2575 21.6079 27.3821C21.5879 27.5067 21.539 27.6249 21.465 27.7271H21.47Z" fill="#3C3C3C"/>
</svg>
