<svg viewBox="0 0 45 50" fill="none" xmlns="http://www.w3.org/2000/svg">
<path d="M11.8937 0C12.4537 2.535 13.2487 4.92 13.7786 7.5C13.9536 6.91 15.3086 1.255 15.6636 0H18.6385C18.1685 1.915 17.5485 3.68 16.9585 5.5C16.3685 7.32 15.8686 9.15 15.2786 10.92V18.735H12.3037V11.34C11.2137 7.63 8.9188 0.06 8.9188 0H11.8937ZM21.6034 4.565C21.7301 4.54024 21.8593 4.53017 21.9883 4.535C22.7072 4.46791 23.4305 4.60117 24.0783 4.92C24.4744 5.13244 24.8232 5.42335 25.1032 5.775C25.4324 6.11892 25.6697 6.54021 25.7932 7C25.8973 7.51307 25.9276 8.03837 25.8832 8.56C25.9132 9.21 25.9132 9.855 25.9132 10.505C25.9132 11.83 25.9132 13.155 25.8832 14.45C25.8832 14.86 25.8532 15.305 25.8532 15.715C25.8629 16.2657 25.7412 16.8107 25.4982 17.305C25.3807 17.5539 25.2329 17.7873 25.0582 18C24.2933 18.945 22.8483 19.235 21.6984 19.15C21.3083 19.1273 20.9223 19.0585 20.5484 18.945C19.9952 18.7018 19.517 18.3151 19.1634 17.825C18.3985 16.855 18.4885 15.765 18.4585 14.585C18.4285 13.29 18.4285 11.995 18.4285 10.695C18.4285 9.96 18.4585 9.22 18.4585 8.485C18.3931 7.80427 18.4943 7.11786 18.7535 6.485C19.0633 5.8958 19.5306 5.40421 20.1034 5.065C20.5737 4.81983 21.08 4.65105 21.6034 4.565ZM21.9683 7C21.6134 7.145 21.3184 7.295 21.2334 7.675C21.1693 8.20242 21.1493 8.73425 21.1734 9.265C21.1434 10.415 21.1434 11.59 21.1434 12.765V14.59C21.1434 15.24 20.9984 16.445 21.8784 16.62C22.0658 16.6538 22.2585 16.6449 22.4421 16.5938C22.6256 16.5427 22.7953 16.4508 22.9383 16.325C23.0511 16.1861 23.1352 16.0261 23.1858 15.8545C23.2365 15.6829 23.2526 15.5029 23.2333 15.325V9.25C23.2333 8.81 23.2633 8.335 23.2333 7.895C23.2151 7.75037 23.167 7.61112 23.0921 7.4861C23.0171 7.36108 22.917 7.25303 22.798 7.16884C22.679 7.08465 22.5438 7.02616 22.4009 6.99709C22.2581 6.96802 22.1108 6.96901 21.9683 7ZM30.718 4.91V13.315C30.718 13.935 30.688 14.55 30.688 15.17C30.688 15.465 30.6281 16.29 31.073 16.35C31.838 16.495 32.368 15.82 32.813 15.405V4.905H35.4929V18.735H32.808V17.435C32.5384 17.7497 32.2192 18.0182 31.863 18.23C31.4338 18.542 30.9556 18.7803 30.4481 18.935C30.1538 18.9645 29.8573 18.9645 29.5631 18.935C29.3386 18.9216 29.1204 18.8559 28.9259 18.743C28.7314 18.6301 28.5661 18.4733 28.4431 18.285C28.2427 18.0044 28.1108 17.6808 28.0581 17.34V4.92L30.718 4.91ZM7.97383 22.06C9.57146 21.9519 11.1738 21.9319 12.7737 22H18.5485C22.3783 22 26.2382 21.97 30.0481 22C31.108 22 32.168 22 33.228 22.03C34.2782 21.9912 35.3298 22.0112 36.3779 22.09C38.3246 22.2567 40.1484 23.111 41.5227 24.5C42.8846 25.8133 43.7889 27.5292 44.1026 29.395C44.2226 33.52 44.2226 38.145 44.1026 42.265C44.0515 43.0393 43.8566 43.7972 43.5276 44.5C43.273 45.1277 42.9635 45.7318 42.6026 46.305C41.8042 47.3619 40.7792 48.2264 39.6027 48.835C37.8378 50.1 35.1529 49.985 32.443 49.985C24.3433 49.985 15.5386 50.045 7.61385 49.925C5.75522 49.6446 4.03489 48.7774 2.70402 47.45C1.34127 46.1576 0.449113 44.4472 0.169104 42.59C0.013948 41.4302 -0.0345867 40.2586 0.0241095 39.09V35.58C0.0241095 33.195 -0.0958865 30.78 0.229102 28.715C0.658084 27.0059 1.59196 25.4656 2.90901 24.295C4.08253 23.2279 5.51498 22.4867 7.06387 22.145C7.44385 22.12 7.70884 22.09 7.97383 22.06ZM5.29393 29.1H8.20883V45.1H11.0387C11.0987 39.8 10.9487 34.29 11.0987 29.1H13.9836V26.5H5.29393C5.32393 27.215 5.29393 28.275 5.29393 29.1ZM23.8233 26.5V45.065H26.3532V44.065C26.6601 44.4433 27.046 44.7498 27.4839 44.9631C27.9218 45.1765 28.4011 45.2915 28.8881 45.3C29.2664 45.2814 29.6347 45.1728 29.9625 44.9832C30.2904 44.7936 30.5682 44.5286 30.773 44.21C30.8996 43.9405 30.979 43.6513 31.008 43.355C31.0683 43.0553 31.1001 42.7507 31.103 42.445V34C31.103 33.085 30.6331 31.82 29.7481 31.435C29.4062 31.2746 29.0355 31.1844 28.6581 31.17C28.1952 31.1471 27.7348 31.2498 27.3255 31.4672C26.9162 31.6846 26.5734 32.0086 26.3332 32.405V26.5C25.5582 26.5 24.6483 26.5 23.8233 26.5ZM40.6427 34.5C40.5904 33.4254 40.1267 32.4121 39.3477 31.67C38.497 31.1594 37.5062 30.9318 36.5178 31.02C35.8623 31.0747 35.2348 31.3103 34.7052 31.7005C34.1755 32.0906 33.7646 32.6201 33.518 33.23C33.3356 33.6312 33.224 34.0608 33.188 34.5V41.95C33.3161 43.0229 33.8044 44.0205 34.5729 44.78C35.0492 45.0736 35.5641 45.2991 36.1029 45.45C37.8428 45.57 39.0178 45.185 39.7827 44.36C40.4877 43.415 40.7527 42.005 40.6377 40.235H38.1028C38.0728 41.265 38.1928 42.505 37.6028 42.975C37.2153 43.1575 36.7712 43.1791 36.3679 43.035C35.7779 42.74 35.7479 41.915 35.7179 41.09C35.6879 40.265 35.7479 39.295 35.7179 38.5H40.6377L40.6427 34.5ZM14.1436 31.38C14.0536 31.38 14.0536 31.5 14.0836 31.585V41.74C14.0836 42.625 13.9086 44.655 15.3186 45.24C15.4407 45.2889 15.5724 45.3094 15.7036 45.3C17.9985 45.3 18.7985 43.68 18.7985 43.62V45.065H21.3334V31.4H18.7835V41.9C18.3135 42.34 17.7835 43.05 16.8985 42.845C16.5135 42.64 16.5435 42.14 16.5435 41.755V31.4L14.1436 31.38ZM28.1831 33.5C28.6531 34.03 28.6231 34.825 28.6231 35.68V40.885C28.6462 41.3166 28.6395 41.7493 28.6031 42.18C28.5431 42.62 28.4281 43.065 27.9281 43.18C27.6473 43.2093 27.3635 43.174 27.0984 43.077C26.8333 42.9799 26.5938 42.8236 26.3982 42.62V33.875C26.6156 33.6285 26.9068 33.4588 27.2284 33.3912C27.5501 33.3237 27.8849 33.3618 28.1831 33.5ZM37.5478 33.56C38.0478 33.915 38.0478 34.62 38.0778 35.18V36.475H35.6929C35.6734 35.9149 35.6834 35.3541 35.7229 34.795C35.6925 34.3567 35.8282 33.9229 36.1029 33.58C36.3 33.4314 36.5367 33.3445 36.7832 33.3302C37.0297 33.316 37.2749 33.3751 37.4878 33.5C37.5178 33.5 37.5478 33.5 37.5478 33.55V33.56Z" fill="#3C3C3C"/>
</svg>
